<?xml version="1.0" encoding="UTF-8" standalone="no" ?>
<!DOCTYPE svg PUBLIC "-//W3C//DTD SVG 1.1//EN" "http://www.w3.org/Graphics/SVG/1.1/DTD/svg11.dtd">
<svg xmlns="http://www.w3.org/2000/svg" xmlns:xlink="http://www.w3.org/1999/xlink" version="1.1" width="500" height="500" viewBox="0 0 500 500" xml:space="preserve">
<desc>Created with Fabric.js 4.6.0</desc>
<defs>
</defs>
<g transform="matrix(0.02 0 0 -0.02 189.43 215.87)" id="UFbpzSx2rktZd07FcuSZu"  >
<path style="stroke: none; stroke-width: 1; stroke-dasharray: none; stroke-linecap: butt; stroke-dashoffset: 0; stroke-linejoin: miter; stroke-miterlimit: 4; fill: rgb(106,193,199); fill-rule: nonzero; opacity: 1;" vector-effect="non-scaling-stroke"  transform=" translate(-3728.61, -4721.39)" d="M 3474 5696 C 3255 5586 3062 5342 2414 4355 C 2238 4088 2093 3881 2008 3775 C 1979 3739 1965 3714 1972 3713 C 1979 3711 2229 3757 2528 3814 C 2926 3890 3077 3923 3091 3936 C 3102 3946 3161 4028 3222 4118 C 3356 4316 3419 4386 3501 4430 C 3555 4459 3569 4462 3616 4457 C 3689 4449 3762 4407 3824 4336 C 3852 4304 3894 4265 3917 4249 L 3959 4220 L 4258 4220 C 4422 4220 4766 4223 5022 4227 L 5487 4233 L 5401 4305 C 5292 4396 5158 4522 4784 4885 C 4619 5045 4444 5211 4395 5255 C 4122 5499 3888 5653 3706 5709 C 3607 5740 3556 5737 3474 5696 z" stroke-linecap="round" />
</g>
<g transform="matrix(0.02 0 0 -0.02 247.1 248.34)" id="gIeJnvI7aHPoZKDZGoRlW"  >
<path style="stroke: none; stroke-width: 1; stroke-dasharray: none; stroke-linecap: butt; stroke-dashoffset: 0; stroke-linejoin: miter; stroke-miterlimit: 4; fill: rgb(106,193,199); fill-rule: nonzero; opacity: 1;" vector-effect="non-scaling-stroke"  transform=" translate(-6291.5, -3278.21)" d="M 11092 4890 C 10728 4839 10382 4614 10103 4249 L 10037 4162 L 9651 4156 C 9288 4150 8997 4146 7145 4120 C 6738 4114 6113 4105 5755 4100 C 5398 4095 4853 4088 4545 4084 L 3985 4078 L 3625 3969 C 3427 3910 3162 3830 3035 3792 C 2505 3632 1918 3454 1475 3320 C 1327 3275 1144 3220 1070 3198 C 996 3176 934 3157 933 3156 C 932 3155 1021 2940 1131 2680 C 1241 2419 1345 2172 1361 2133 C 1379 2090 1398 2060 1406 2060 C 1414 2060 1582 2105 1778 2161 C 2230 2288 2740 2432 3198 2561 C 3394 2616 3697 2702 3871 2751 C 4044 2800 4194 2840 4203 2840 C 4213 2840 4601 2655 5066 2428 L 5912 2016 L 7529 2007 L 9146 1998 L 9975 2500 L 10804 3001 L 10919 2887 C 10983 2824 11219 2594 11444 2375 L 11853 1977 L 11930 1984 C 12173 2004 12250 2092 12250 2350 L 12250 2456 L 11913 2780 C 11727 2958 11410 3263 11208 3458 L 10841 3811 L 10193 3499 L 9546 3187 L 9475 3193 C 9351 3202 9292 3250 9303 3332 C 9306 3354 9310 3373 9312 3375 C 9313 3376 9672 3565 10109 3794 L 10903 4211 L 10939 4177 C 10959 4158 11243 3892 11570 3585 C 11897 3278 12191 3002 12223 2971 L 12282 2915 L 12341 2979 C 12496 3147 12570 3333 12570 3557 C 12569 3751 12532 3899 12435 4095 C 12238 4492 11862 4792 11456 4875 C 11359 4894 11178 4902 11092 4890 z M 140 3897 C 71 3870 14 3846 13 3845 C 10 3843 880 1667 886 1661 C 891 1655 1160 1761 1160 1769 C 1161 1772 966 2264 728 2862 C 419 3638 291 3949 280 3949 C 272 3948 209 3925 140 3897 z" stroke-linecap="round" />
</g>
<g transform="matrix(0.02 0 0 -0.02 258.19 282.5)" id="sHyo7fZwncb6H0J9ZA3vE"  >
<path style="stroke: none; stroke-width: 1; stroke-dasharray: none; stroke-linecap: butt; stroke-dashoffset: 0; stroke-linejoin: miter; stroke-miterlimit: 4; fill: rgb(106,193,199); fill-rule: nonzero; opacity: 1;" vector-effect="non-scaling-stroke"  transform=" translate(-6784.34, -1760)" d="M 10598 2712 C 10495 2637 10411 2572 10411 2569 C 10409 2558 10551 2450 10613 2416 C 10776 2324 10921 2290 11175 2283 L 11365 2278 L 11080 2564 C 10923 2721 10793 2850 10790 2850 C 10787 2849 10701 2787 10598 2712 z M 1010 1276 C 775 1224 690 931 860 760 C 892 729 929 704 965 691 L 1021 670 L 6785 670 C 12519 670 12550 670 12603 690 C 12671 715 12736 778 12768 849 C 12840 1005 12779 1175 12623 1252 L 12555 1285 L 6810 1287 C 2337 1288 1053 1286 1010 1276 z" stroke-linecap="round" />
</g>
</svg>